<?xml version="1.0" encoding="utf-8"?>
<!-- Generator: Adobe Illustrator 27.0.1, SVG Export Plug-In . SVG Version: 6.00 Build 0)  -->
<svg version="1.1" id="Vrstva_1" xmlns="http://www.w3.org/2000/svg" xmlns:xlink="http://www.w3.org/1999/xlink" x="0px" y="0px"
	 viewBox="0 0 67.5 67.1" style="enable-background:new 0 0 67.5 67.1;" xml:space="preserve">
<style type="text/css">
	.st0{fill:#FFFFFF;}
</style>
<g>
	<path class="st0" d="M50,21.1c-0.4-1-0.8-1.7-1.6-2.4c-0.7-0.7-1.4-1.2-2.4-1.6c-0.7-0.3-1.9-0.6-3.9-0.7c-2.2-0.1-2.9-0.1-8.5-0.1
		s-6.3,0-8.5,0.1c-2.1,0.1-3.2,0.4-3.9,0.7c-1,0.4-1.7,0.8-2.4,1.6s-1.2,1.4-1.6,2.4c-0.3,0.7-0.6,1.9-0.7,3.9
		c-0.1,2.2-0.1,2.9-0.1,8.5c0,5.6,0,6.3,0.1,8.5c0.1,2.1,0.4,3.2,0.7,3.9c0.4,1,0.8,1.7,1.6,2.4c0.7,0.7,1.4,1.2,2.4,1.6
		c0.7,0.3,1.9,0.6,3.9,0.7c2.2,0.1,2.9,0.1,8.5,0.1c5.6,0,6.3,0,8.5-0.1c2.1-0.1,3.2-0.4,3.9-0.7c1-0.4,1.7-0.8,2.4-1.6
		c0.7-0.7,1.2-1.4,1.6-2.4c0.3-0.7,0.6-1.9,0.7-3.9c0.1-2.2,0.1-2.9,0.1-8.5c0-5.6,0-6.3-0.1-8.5C50.6,23,50.3,21.8,50,21.1z
		 M33.5,44.4c-6,0-10.8-4.9-10.8-10.8c0-6,4.9-10.8,10.8-10.8c6,0,10.8,4.9,10.8,10.8C44.4,39.5,39.5,44.4,33.5,44.4z M44.8,24.8
		c-1.4,0-2.5-1.1-2.5-2.5c0-1.4,1.1-2.5,2.5-2.5c1.4,0,2.5,1.1,2.5,2.5C47.4,23.7,46.2,24.8,44.8,24.8z"/>
	<circle class="st0" cx="33.5" cy="33.5" r="7"/>
	<path class="st0" d="M33.5,0C15,0,0,15,0,33.5c0,18.5,15,33.5,33.5,33.5c18.5,0,33.5-15,33.5-33.5C67.1,15,52.1,0,33.5,0z
		 M54.5,42.3c-0.1,2.2-0.5,3.8-1,5.1c-0.5,1.4-1.3,2.6-2.4,3.7c-1.2,1.2-2.4,1.9-3.7,2.4c-1.3,0.5-2.9,0.9-5.1,1
		c-2.3,0.1-3,0.1-8.7,0.1s-6.5,0-8.7-0.1c-2.2-0.1-3.8-0.5-5.1-1c-1.4-0.5-2.6-1.3-3.7-2.4c-1.2-1.2-1.9-2.4-2.4-3.7
		c-0.5-1.3-0.9-2.9-1-5.1c-0.1-2.3-0.1-3-0.1-8.7c0-5.7,0-6.5,0.1-8.7c0.1-2.2,0.5-3.8,1-5.1c0.5-1.4,1.3-2.6,2.4-3.7
		c1.2-1.2,2.4-1.9,3.7-2.4c1.3-0.5,2.9-0.9,5.1-1c2.3-0.1,3-0.1,8.7-0.1s6.5,0,8.7,0.1c2.2,0.1,3.8,0.5,5.1,1
		c1.4,0.5,2.6,1.3,3.7,2.4c1.2,1.2,1.9,2.4,2.4,3.7c0.5,1.3,0.9,2.9,1,5.1c0.1,2.3,0.1,3,0.1,8.7S54.6,40,54.5,42.3z"/>
</g>
</svg>
